<?xml version="1.0" encoding="utf-8"?>
<!-- Generator: Adobe Illustrator 23.1.1, SVG Export Plug-In . SVG Version: 6.00 Build 0)  -->
<svg version="1.1" id="Layer_1" xmlns="http://www.w3.org/2000/svg" xmlns:xlink="http://www.w3.org/1999/xlink" x="0px" y="0px"
	 viewBox="0 0 360 360" style="enable-background:new 0 0 360 360;" xml:space="preserve">
<style type="text/css">
	.st0{fill:#999999;}
</style>
<g>
	<path d="M0,153.47h49.82v15.23H16.26v12.91h24.65v14.71H16.26v14.2h34.2v15.23H0V153.47z"/>
	<path d="M101.1,212.32c-4.52-7.23-6.84-11.88-6.97-11.88h-0.26c-0.13,0-2.45,4.51-6.71,11.88l-7.75,13.42H61.47l22.59-36.91
		l-20.78-35.36h18.97l6.84,12.26c4.51,8,6.71,12.13,6.84,12.13h0.13c0.13,0,2.58-4.39,6.97-12.52l6.33-11.88h17.29l-21.17,35.75
		l22.97,36.52h-19.1L101.1,212.32z"/>
	<path d="M168.64,152.05c20.39,0,34.59,13.68,34.59,37.55c0,23.75-14.2,37.69-34.59,37.69c-20.39,0-34.47-13.94-34.47-37.69
		C134.18,165.72,148.25,152.05,168.64,152.05z M168.64,212.32c10.97,0,18.07-7.88,18.07-22.72c0-14.71-7.1-22.58-18.07-22.58
		c-10.97,0-17.94,7.87-17.94,22.58C150.7,204.58,157.67,212.32,168.64,212.32z"/>
	<path class="st0" d="M271.81,225.74c0-7.36,0.13-9.29,0.13-9.55h-0.26c-3.1,4-10.71,10.97-23.62,10.97
		c-19.23,0-33.04-14.46-33.04-37.69c0-23.49,14.07-37.3,33.56-37.3c12.78,0,25.17,5.68,30.33,21.04l-8.91,2.45
		c-2.71-6.72-9.03-14.59-21.17-14.59c-14.46,0-23.88,10.33-23.88,28.14c0,18.45,9.68,29.04,24.78,29.04
		c10.97,0,19.36-6.2,21.94-11.36v-9.68h-19.11v-8.65h27.88v37.17H271.81z"/>
	<path class="st0" d="M326.44,152.17c19.49,0,33.56,13.94,33.56,37.43c0,23.49-14.07,37.56-33.56,37.56
		c-19.62,0-33.56-14.07-33.56-37.56C292.89,166.11,306.82,152.17,326.44,152.17z M326.44,218.13c13.81,0,23.62-10.2,23.62-28.53
		c0-18.2-9.81-28.52-23.62-28.52c-13.94,0-23.62,10.33-23.62,28.52C302.82,207.93,312.5,218.13,326.44,218.13z"/>
</g>
</svg>
